<svg width="166" height="28" xmlns="http://www.w3.org/2000/svg" xmlns:xlink="http://www.w3.org/1999/xlink"><defs><path id="a" d="M0 0h165v10.563H0z"/><path id="c" d="M0 0h165v13.815H0z"/></defs><g fill="none" fill-rule="evenodd"><g transform="translate(.1 17.437)"><mask id="b" fill="#fff"><use xlink:href="#a"/></mask><path d="M164.354 3.868h-5.124V2.97h5.382V.257h-9.66v10.049h9.531L165 7.608h-5.77V6.58h5.124V3.868zm-24.703-.956h1.077c1.463 0 1.707 1.185 1.707 2.327 0 1.456-.43 2.412-1.693 2.412h-1.09V2.912zm-4.42 7.394h5.985c3.789 0 5.856-2.256 5.856-5.153 0-2.67-1.837-4.896-5.87-4.896h-5.972v10.049zm-12.82 0h4.421V.256h-4.42v10.05zm-17.01 0c.374-1.927.718-3.854 1.092-5.738h.057c.517 2.483.718 3.797 1.134 5.738h4.45l2.798-10.05h-4.277c-.2 1.728-.473 3.74-.76 6.31h-.058c-.531-2.797-.76-4.254-1.206-6.31h-3.703c-.416 2.1-.775 4.155-1.205 6.381h-.058c-.273-2.226-.488-4.296-.746-6.38H98.34l2.627 10.049h4.435zm-21.3-7.394h1.076c1.464 0 1.708 1.185 1.708 2.327 0 1.456-.43 2.412-1.693 2.412H84.1V2.912zm-4.421 7.394h5.985c3.79 0 5.856-2.256 5.856-5.153 0-2.67-1.837-4.896-5.87-4.896H79.68v10.049zm-16.981 0h9.143l.459-2.712h-5.167V.257h-4.435v10.049zM48.07 2.783h1.235c.674 0 1.105.286 1.105.843 0 .642-.574.828-1.076.828H48.07v-1.67zm.862 3.969c1.02 0 1.263.214 1.263 1.184v.358c0 .899.057 1.627.215 2.012h4.234c-.129-.5-.158-1.185-.158-1.57v-.6c0-1.499-.574-2.184-1.464-2.555 1.062-.385 1.751-1.213 1.751-2.47 0-1.57-1.29-2.854-4.033-2.854H43.78v10.049h4.291V6.752h.862zM29.64 2.54c1.277 0 1.607.956 1.607 2.754 0 1.485-.272 2.613-1.536 2.613-1.291 0-1.636-1.128-1.636-2.698 0-1.713.416-2.67 1.565-2.67zM29.74 0c-4.579 0-6.315 2.512-6.315 5.295 0 2.984 2.153 5.268 6.129 5.268 4.406 0 6.343-2.327 6.343-5.282 0-3.069-2.41-5.281-6.157-5.281zM7.06 10.306c.374-1.927.718-3.854 1.092-5.738h.057c.517 2.483.718 3.797 1.134 5.738h4.45L16.591.256h-4.277c-.2 1.728-.474 3.74-.76 6.31h-.058c-.531-2.797-.76-4.254-1.206-6.31H6.588c-.416 2.1-.775 4.155-1.205 6.381h-.058c-.273-2.226-.488-4.296-.746-6.38H0l2.627 10.049h4.435z" fill="#D2B32A" mask="url(#b)"/></g><g transform="translate(.1)"><mask id="d" fill="#fff"><use xlink:href="#c"/></mask><path d="M154.116 7.993c.777-2.019 1.424-3.893 1.742-4.986h.071c.368 1.105.918 2.608 1.872 4.986h-3.685zm4.789 3.057l.992 2.463H165L159.11.302h-6.19l-5.527 13.211h4.764l.924-2.463h5.824zm-20.579 2.463h4.755V.302h-4.755v13.211zm-16.828 0V10.3c0-2.592-.008-4.345-.147-5.855h.07c.868 1.609 4.46 7.233 5.6 9.068h5.229V.302h-4.277v2.332c0 2.185-.006 4.575.125 5.817h-.078c-.943-1.7-2.036-3.417-5.272-8.15h-5.535v13.212h4.285zM103.603 2.93c2.47 0 3.365 1.685 3.365 3.98 0 1.977-.772 3.924-3.234 3.924-2.396 0-3.407-1.703-3.407-4 0-2.158.926-3.904 3.276-3.904zm.118-2.93c-5.576 0-8.4 3.258-8.4 6.897 0 3.877 2.914 6.92 8.184 6.92 5.745 0 8.47-3.209 8.47-6.939 0-3.746-2.979-6.877-8.254-6.877zm-21.63 13.514h4.748V3.347h4.795V.302H77.269v3.045h4.823v10.166zM63.823 3.193h2.748c1.46 0 2.025.607 2.025 1.452 0 1.012-.743 1.482-2.025 1.482h-2.748V3.193zm-4.732 10.32h4.732V9.031h3.506c3.635 0 5.942-1.613 5.942-4.423 0-2.726-2.448-4.306-5.96-4.306h-8.22v13.211zm-9.912 0v-4.51c0-.221.029-.336.112-.455L55.286.302h-5.101c-1.196 1.989-2.477 3.945-3.174 5.296-.706-1.396-1.94-3.393-3.113-5.296h-5.577l5.88 8.115c.146.203.208.303.208.517v4.58h4.769zM25.426 3.151h2.906c1.354 0 2.017.498 2.017 1.377 0 .954-.723 1.381-2.017 1.381h-2.906V3.151zm2.217 5.503c1.839 0 2.273.452 2.273 1.68v.446c0 1.366.056 2.178.299 2.733h4.727c-.2-.645-.202-1.607-.202-2.358v-.716c0-2.24-1.343-2.874-2.133-3.18 1.43-.446 2.522-1.462 2.522-3.164 0-2.188-1.897-3.793-5.529-3.793h-8.836v13.211h4.662v-4.86h2.217zm-16.399.378c-.417 1.122-1.143 1.826-2.915 1.826-2.457 0-3.322-1.944-3.322-4.05 0-2.318 1.09-3.89 3.308-3.89 2.09 0 2.693 1.082 2.9 1.815h4.79C15.624 2.338 13.286 0 8.334 0 2.677 0 0 3.285 0 6.9c0 3.787 2.72 6.915 8.134 6.915 4.697 0 7.169-1.999 7.835-4.783h-4.725z" fill="#231F20" mask="url(#d)"/></g></g></svg>