<svg width="48" height="39" xmlns="http://www.w3.org/2000/svg"><g fill="#000" fill-rule="nonzero"><ellipse cx="26.182" cy="28.167" rx="1.091" ry="1.083"/><ellipse cx="7.636" cy="34.667" rx="1.091" ry="1.083"/><path d="M44.727 0H7.637C5.781 0 4.363 1.408 4.363 3.25v10.833c0 .65.436 1.084 1.09 1.084.655 0 1.091-.434 1.091-1.084V3.25c0-.65.437-1.083 1.091-1.083h37.091c.655 0 1.091.433 1.091 1.083v26c0 .65-.436 1.083-1.09 1.083H18.544c-.654 0-1.09.434-1.09 1.084 0 .65.436 1.083 1.09 1.083h2.182v3.25c0 .65-.436 1.083-1.09 1.083h-1.092c-.654 0-1.09.434-1.09 1.084 0 .65.436 1.083 1.09 1.083h15.273c.655 0 1.091-.433 1.091-1.083 0-.65-.436-1.084-1.09-1.084h-1.092c-.654 0-1.09-.433-1.09-1.083V32.5h13.09c1.855 0 3.273-1.408 3.273-3.25v-26C48 1.408 46.582 0 44.727 0zM22.691 36.833c.109-.325.218-.65.218-1.083V32.5h6.545v3.25c0 .433.11.758.219 1.083H22.69z"/><path d="M42.545 23.833h-24c-.654 0-1.09.434-1.09 1.084 0 .65.436 1.083 1.09 1.083h24c.655 0 1.091-.433 1.091-1.083 0-.65-.436-1.084-1.09-1.084zM12 17.333H3.273C1.418 17.333 0 18.742 0 20.583V35.75C0 37.592 1.418 39 3.273 39H12c1.855 0 3.273-1.408 3.273-3.25V20.583c0-1.841-1.418-3.25-3.273-3.25zm1.09 18.417c0 .65-.436 1.083-1.09 1.083H3.273c-.655 0-1.091-.433-1.091-1.083V20.583c0-.65.436-1.083 1.09-1.083H12c.655 0 1.09.433 1.09 1.083V35.75z"/></g></svg>