<svg width="32" height="26" xmlns="http://www.w3.org/2000/svg"><path d="M32 3.08c-1.18.52-2.444.874-3.771 1.031A6.566 6.566 0 0031.112.478a13.153 13.153 0 01-4.168 1.594A6.567 6.567 0 0015.76 8.06C10.302 7.788 5.466 5.171 2.229 1.2a6.547 6.547 0 00-.888 3.3A6.556 6.556 0 004.263 9.96a6.549 6.549 0 01-2.974-.822v.082a6.568 6.568 0 005.266 6.436 6.58 6.58 0 01-2.965.11 6.573 6.573 0 006.13 4.56 13.165 13.165 0 01-8.154 2.813c-.53 0-1.05-.034-1.566-.091A18.575 18.575 0 0010.064 26c12.073 0 18.675-10.004 18.675-18.68 0-.286-.004-.568-.019-.85a13.278 13.278 0 003.275-3.4l.005.01z" fill="#C4AC54" fill-rule="evenodd"/></svg>