<svg width="37" height="26" xmlns="http://www.w3.org/2000/svg"><path d="M19.05 0c1.134.007 3.806.03 6.55.13l.66.025c2.748.111 5.452.302 6.649.63a4.659 4.659 0 013.274 3.286c1.223 4.936.94 12.731.024 17.857a4.659 4.659 0 01-3.274 3.286c-2.585.707-12.204.778-14.102.785l-.288.001h-.364c-1.898-.008-11.517-.079-14.102-.786a4.659 4.659 0 01-3.274-3.286C-.427 17.014-.09 9.214.779 4.094A4.659 4.659 0 014.054.81C6.638.1 16.257.01 18.154 0zm-4.247 7.428V18.57L24.39 13l-9.587-5.572z" fill="#C4AC54" fill-rule="nonzero"/></svg>