<svg width="48" height="46" xmlns="http://www.w3.org/2000/svg"><g fill="#C4AC54" fill-rule="nonzero"><ellipse cx="34.909" cy="15.333" rx="2.182" ry="2.19"/><ellipse cx="13.091" cy="15.333" rx="2.182" ry="2.19"/><path d="M24 8.762c-3.6 0-6.545 2.957-6.545 6.571 0 3.615 2.945 6.572 6.545 6.572s6.545-2.957 6.545-6.572c0-3.614-2.945-6.571-6.545-6.571zm0 10.952c-2.4 0-4.364-1.971-4.364-4.38 0-2.41 1.964-4.382 4.364-4.382s4.364 1.972 4.364 4.381c0 2.41-1.964 4.381-4.364 4.381z"/><path d="M44.727 0H3.273C1.418 0 0 1.424 0 3.286V27.38c0 1.862 1.418 3.286 3.273 3.286h14.182c.654 0 1.09-.439 1.09-1.096s-.436-1.095-1.09-1.095H3.273c-.655 0-1.091-.438-1.091-1.095V3.286c0-.657.436-1.095 1.09-1.095h41.455c.655 0 1.091.438 1.091 1.095V20.81c0 .657.437 1.095 1.091 1.095.654 0 1.091-.438 1.091-1.095V3.286C48 1.424 46.582 0 44.727 0z"/><path d="M42.436 6.571c-.654 0-1.09-.438-1.09-1.095s-.437-1.095-1.091-1.095H7.636c-.654 0-1.09.438-1.09 1.095s-.437 1.095-1.091 1.095c-.655 0-1.091.439-1.091 1.096V23c0 .657.436 1.095 1.09 1.095.655 0 1.092.438 1.092 1.095 0 .658.436 1.096 1.09 1.096h10.91c.654 0 1.09-.439 1.09-1.096s-.436-1.095-1.09-1.095H8.509c-.327-.986-1.09-1.643-1.963-1.971V8.543c.981-.329 1.636-1.095 1.963-1.972h30.873c.327.986 1.09 1.643 1.963 1.972v8.98c0 .658.437 1.096 1.091 1.096.655 0 1.091-.438 1.091-1.095V7.667c0-.657-.436-1.096-1.09-1.096z"/><path d="M38.182 19.714a8.41 8.41 0 00-3.71.876c-.545.22-.763.877-.545 1.424.218.548.873.767 1.418.548a6.344 6.344 0 012.837-.657c3.6 0 6.545 2.957 6.545 6.571 0 1.314-.436 2.629-1.2 3.724-.327.548-.218 1.205.218 1.533.219.11.437.22.655.22.327 0 .655-.11.873-.439.982-1.424 1.527-3.176 1.527-5.038.11-4.819-3.818-8.762-8.618-8.762z"/><path d="M38.182 25.19c-.655 0-1.091.439-1.091 1.096v1.095c0 .657.436 1.095 1.09 1.095.655 0 1.092-.438 1.092-1.095v-1.095c0-.657-.437-1.096-1.091-1.096zM34.582 24.533c-1.637-1.643-3.818-2.628-6.218-2.628-4.8 0-8.728 3.943-8.728 8.762 0 2.41.982 4.6 2.619 6.243.218.219.436.328.763.328s.546-.11.764-.328a1.062 1.062 0 000-1.534c-1.31-1.314-1.964-2.957-1.964-4.71 0-3.614 2.946-6.57 6.546-6.57 1.745 0 3.49.656 4.69 1.97.437.439 1.091.439 1.528 0a1.062 1.062 0 000-1.533z"/><path d="M33.818 28.476c-4.8 0-8.727 3.943-8.727 8.762 0 4.82 3.927 8.762 8.727 8.762 4.8 0 8.727-3.943 8.727-8.762 0-4.819-3.927-8.762-8.727-8.762zm0 15.334c-3.6 0-6.545-2.958-6.545-6.572s2.945-6.571 6.545-6.571 6.546 2.957 6.546 6.571-2.946 6.572-6.546 6.572z"/><path d="M33.818 33.952c-.654 0-1.09.439-1.09 1.096v4.38c0 .658.436 1.096 1.09 1.096.655 0 1.091-.438 1.091-1.095v-4.381c0-.658-.436-1.096-1.09-1.096z"/><ellipse cx="28.364" cy="28.476" rx="1.091" ry="1.095"/></g></svg>