<svg width="48" height="44" xmlns="http://www.w3.org/2000/svg"><g fill="#C4AC54" fill-rule="nonzero"><path d="M44.727 18.7c-1.42 0-2.62.923-3.072 2.2H36c-.602 0-1.091.491-1.091 1.1 0 2.66-.942 5.1-2.505 7.004-.743-2.15-2.751-3.705-5.131-3.705h-6.546c-2.386 0-4.396 1.562-5.135 3.718a11.12 11.12 0 01-1.757-3.016 1.086 1.086 0 00-1.413-.624 1.103 1.103 0 00-.62 1.426 13.164 13.164 0 004.582 5.946l-2.7 4.715a3.217 3.217 0 00-1.438.048 3.259 3.259 0 00-1.988 1.537 3.3 3.3 0 00-.327 2.504 3.273 3.273 0 003.156 2.446c.284 0 .57-.038.852-.115a3.254 3.254 0 001.987-1.536 3.318 3.318 0 00-.353-3.783l2.685-4.689A13.03 13.03 0 0024 35.2c2.055 0 3.998-.489 5.73-1.343l2.698 4.71a3.318 3.318 0 00-.353 3.783A3.276 3.276 0 0034.914 44c.567.001 1.126-.15 1.63-.442a3.27 3.27 0 001.526-2.003 3.3 3.3 0 00-.328-2.504 3.26 3.26 0 00-1.987-1.537 3.217 3.217 0 00-1.44-.047l-2.713-4.74a13.216 13.216 0 005.443-9.624h4.61c.452 1.277 1.652 2.2 3.072 2.2 1.805 0 3.273-1.48 3.273-3.3 0-1.82-1.469-3.302-3.273-3.302zm-30.69 22.548a1.094 1.094 0 01-.663.513 1.091 1.091 0 01-1.336-.778 1.093 1.093 0 01.108-.835 1.094 1.094 0 01.947-.55c.189 0 .375.05.543.148.522.302.7.976.4 1.502zM24 32.998c-2.432 0-4.705-.798-6.548-2.19l.002-.009c0-1.82 1.469-3.3 3.273-3.3h6.546c1.797 0 3.26 1.47 3.27 3.28A10.776 10.776 0 0124 33zm10.363 6.748a1.077 1.077 0 01.827-.111c.282.075.517.258.663.513.146.254.184.55.11.835-.076.284-.257.52-.51.667a1.08 1.08 0 01-1.489-.402 1.106 1.106 0 01.4-1.502zM44.727 23.1c-.601 0-1.09-.493-1.09-1.1 0-.607.489-1.1 1.09-1.1.601 0 1.09.493 1.09 1.1 0 .607-.489 1.1-1.09 1.1z"/><path d="M25.09 13.2H22.91c-1.805 0-3.273 1.48-3.273 3.3v3.3c0 2.426 1.957 4.4 4.364 4.4 2.406 0 4.363-1.974 4.363-4.4v-3.3c0-1.82-1.468-3.3-3.272-3.3zm1.092 6.6c0 1.213-.979 2.2-2.182 2.2a2.193 2.193 0 01-2.182-2.2v-3.3c0-.607.49-1.1 1.09-1.1h2.183c.6 0 1.09.493 1.09 1.1v3.3z"/><path d="M36.544.443a3.265 3.265 0 00-4.47 1.208 3.318 3.318 0 00.353 3.783l-2.685 4.689A13.033 13.033 0 0024 8.8c-2.055 0-3.998.488-5.73 1.343l-2.697-4.711a3.318 3.318 0 00.353-3.783A3.249 3.249 0 0013.939.114a3.227 3.227 0 00-2.482.33 3.27 3.27 0 00-1.525 2.003 3.302 3.302 0 00.325 2.504 3.276 3.276 0 002.84 1.652c.196 0 .388-.042.58-.077l2.72 4.75a13.216 13.216 0 00-5.443 9.625h-4.61c-.45-1.28-1.65-2.201-3.071-2.201C1.468 18.7 0 20.18 0 22c0 1.819 1.468 3.3 3.273 3.3 1.42 0 2.62-.923 3.072-2.2H12c.602 0 1.09-.492 1.09-1.1 0-6.065 4.895-11 10.91-11 4.527 0 8.518 2.747 10.165 6.998.22.566.852.848 1.413.624.561-.221.838-.86.62-1.426a13.163 13.163 0 00-4.583-5.946l2.708-4.726c.193.035.386.076.58.076a3.27 3.27 0 002.84-1.649c.901-1.576.363-3.598-1.199-4.508zm-22.908 3.81a1.08 1.08 0 01-1.49-.402 1.1 1.1 0 01.4-1.501 1.066 1.066 0 01.827-.111c.282.076.517.257.662.512.302.526.122 1.2-.399 1.503zM3.273 23.1c-.601 0-1.091-.493-1.091-1.1 0-.607.49-1.1 1.09-1.1.602 0 1.092.493 1.092 1.1 0 .607-.49 1.1-1.091 1.1zM35.853 3.85c-.3.525-.97.707-1.49.403a1.105 1.105 0 01-.399-1.503c.3-.525.969-.708 1.49-.402.52.302.7.978.4 1.502z"/></g></svg>