<svg width="48" height="44" xmlns="http://www.w3.org/2000/svg"><g fill="#C4AC54" fill-rule="nonzero"><ellipse cx="40.364" cy="37.4" rx="1.091" ry="1.1"/><path d="M46.909 30.8h-1.09v-3.3c0-3.033-2.448-5.5-5.455-5.5-3.008 0-5.455 2.467-5.455 5.5v3.3h-1.09c-.604 0-1.092.492-1.092 1.1v8.8c0 1.82 1.469 3.3 3.273 3.3h8.727C46.532 44 48 42.52 48 40.7v-8.8c0-.608-.488-1.1-1.091-1.1zm-9.818-3.3c0-1.82 1.468-3.3 3.273-3.3 1.804 0 3.272 1.48 3.272 3.3v3.3h-6.545v-3.3zm8.727 13.2c0 .607-.489 1.1-1.09 1.1H36c-.602 0-1.09-.493-1.09-1.1V33h10.908v7.7z"/><path d="M43.365 18.525C41.677 7.795 32.619.005 21.825.001L21.818 0C9.788 0 0 9.87 0 22c0 12.098 9.735 21.94 21.722 21.995.032 0 .063.005.096.005l.024-.002a21.628 21.628 0 006.866-1.119c.572-.192.882-.814.692-1.391a1.084 1.084 0 00-1.28-.709 16.36 16.36 0 002.02-2.832c.3-.527.119-1.2-.404-1.5a1.085 1.085 0 00-1.488.406c-1.528 2.69-3.394 4.345-5.339 4.804V33h6.546c.603 0 1.09-.492 1.09-1.1 0-.608-.487-1.1-1.09-1.1h-6.546v-7.7h9.818c.604 0 1.091-.492 1.091-1.1v-2.2c0-.01-.005-.02-.006-.03 0-.01.004-.02.004-.03a37.232 37.232 0 00-.936-6.54h6.536a19.964 19.964 0 011.795 5.67 1.093 1.093 0 001.247.913 1.098 1.098 0 00.907-1.258zM15.442 3.292C13.759 5.196 12.365 7.837 11.388 11h-2.66c-.603 0-1.092.492-1.092 1.1 0 .608.488 1.1 1.091 1.1h2.061c-.549 2.366-.87 4.962-.94 7.7h-7.61c.448-8.182 5.831-15.044 13.204-17.608zM5.502 33h5.901c.996 3.205 2.396 5.833 4.057 7.713A19.743 19.743 0 015.503 33zm15.225 8.658c-2.792-.674-5.41-3.886-7.03-8.658h7.03v8.658zm0-10.858H4.255a19.767 19.767 0 01-2.018-7.7h7.62c.04 1.541.143 3.071.354 4.556a1.092 1.092 0 001.235.933 1.1 1.1 0 00.926-1.245c-.197-1.382-.293-2.808-.333-4.244h5.415c.604 0 1.091-.492 1.091-1.1 0-.608-.487-1.1-1.09-1.1h-5.427c.079-2.739.445-5.345 1.043-7.7h7.656v17.6zm1.091-26.4c-.603 0-1.09.492-1.09 1.1V11H13.71c1.785-5.266 4.784-8.799 8.107-8.799 3.334 0 6.369 3.506 8.17 8.8L22.909 11V5.5c0-.608-.488-1.1-1.09-1.1zm9.818 16.5H22.91v-7.7h7.73c.517 2.04.866 4.274.997 6.634V20.9zm.637-9.899c-.997-3.168-2.403-5.83-4.098-7.735a19.493 19.493 0 019.994 7.735h-5.896z"/></g></svg>