<svg width="48" height="39" xmlns="http://www.w3.org/2000/svg"><g fill="#C4AC54" fill-rule="nonzero"><ellipse cx="29.52" cy="21.667" rx="1.093" ry="1.083"/><path d="M40.454 0H3.28C1.421 0 0 1.408 0 3.25v26c0 1.842 1.421 3.25 3.28 3.25H16.4v3.25c0 .65-.437 1.083-1.093 1.083h-1.094c-.656 0-1.093.434-1.093 1.084 0 .65.438 1.083 1.093 1.083H26.24c.656 0 1.094-.433 1.094-1.083 0-.65-.438-1.084-1.094-1.084h-7.872c.11-.325.219-.65.219-1.083V32.5h1.093c.656 0 1.093-.433 1.093-1.083 0-.65-.437-1.084-1.093-1.084H3.28c-.656 0-1.093-.433-1.093-1.083v-26c0-.65.437-1.083 1.093-1.083h37.174c.656 0 1.093.433 1.093 1.083v6.5c0 .65.437 1.083 1.093 1.083.656 0 1.094-.433 1.094-1.083v-6.5c0-1.842-1.422-3.25-3.28-3.25z"/><path d="M17.494 23.833H5.467c-.656 0-1.094.434-1.094 1.084 0 .65.438 1.083 1.094 1.083h12.027c.656 0 1.093-.433 1.093-1.083 0-.65-.437-1.084-1.093-1.084zM39.36 13a8.52 8.52 0 00-3.717.867c-.547.216-.765.866-.547 1.408.219.542.875.758 1.422.542a6.427 6.427 0 012.842-.65c3.608 0 6.56 2.925 6.56 6.5 0 1.3-.437 2.6-1.202 3.683-.328.542-.219 1.192.218 1.517.219.108.438.216.656.216.328 0 .656-.108.875-.433.984-1.408 1.53-3.142 1.53-4.983C48.108 16.9 44.172 13 39.36 13z"/><path d="M39.36 18.417c-.656 0-1.093.433-1.093 1.083v1.083c0 .65.437 1.084 1.093 1.084.656 0 1.094-.434 1.094-1.084V19.5c0-.65-.438-1.083-1.094-1.083zM35.752 17.767c-1.64-1.625-3.826-2.6-6.232-2.6-4.81 0-8.746 3.9-8.746 8.666 0 2.384.984 4.55 2.624 6.175.218.217.437.325.765.325s.547-.108.765-.325a1.04 1.04 0 000-1.516c-1.312-1.3-1.968-2.925-1.968-4.659 0-3.575 2.952-6.5 6.56-6.5 1.75 0 3.499.65 4.702 1.95a1.064 1.064 0 001.53 0 1.04 1.04 0 000-1.516z"/><path d="M34.987 21.667c-4.81 0-8.747 3.9-8.747 8.666C26.24 35.1 30.176 39 34.987 39c4.81 0 8.747-3.9 8.747-8.667 0-4.766-3.936-8.666-8.747-8.666zm0 15.166c-3.608 0-6.56-2.925-6.56-6.5s2.952-6.5 6.56-6.5c3.608 0 6.56 2.925 6.56 6.5s-2.952 6.5-6.56 6.5z"/><path d="M34.987 27.083c-.656 0-1.093.434-1.093 1.084V32.5c0 .65.437 1.083 1.093 1.083.656 0 1.093-.433 1.093-1.083v-4.333c0-.65-.437-1.084-1.093-1.084z"/></g></svg>