<svg width="33" height="48" xmlns="http://www.w3.org/2000/svg"><g fill="#C4AC54" fill-rule="nonzero"><path d="M33 18.436c0-4.69-2.42-8.181-6.27-9.381-.66-.11-1.21.218-1.43.763-.22.546.22 1.2.77 1.31 2.97.872 4.73 3.6 4.73 7.2 0 5.127-3.19 9.927-6.6 9.927-.88 0-1.76-.328-2.64-.982-.44-.327-1.21-.218-1.54.218-.33.436-.22 1.2.22 1.527l.99.655c-.99 1.09-1.43 2.51-1.43 4.036 0 .655.44 1.091 1.1 1.091h2.2a4.773 4.773 0 01-2.64 3.928c-.55.218-.77.872-.44 1.418.22.436.55.654.99.654.22 0 .33 0 .44-.109 2.31-1.09 3.74-3.382 3.85-5.89h2.2c.66 0 1.1-.437 1.1-1.092 0-1.527-.55-2.836-1.43-4.036C30.69 27.927 33 23.018 33 18.436zM22.22 32.727c.22-.654.55-1.309 1.1-1.854l.33-.327h1.21l.33.327c.55.545.88 1.2 1.1 1.854h-4.07z"/><path d="M24.2 13.09C24.2 5.456 19.14 0 12.1 0S0 5.455 0 13.09c0 5.02 2.31 10.146 5.94 12.983.44.327 1.21.327 1.54-.218.33-.437.33-1.2-.22-1.528-3.08-2.4-5.06-6.763-5.06-11.236 0-6.327 4.18-10.91 9.9-10.91 5.72 0 9.9 4.583 9.9 10.91 0 6.873-4.73 13.09-9.9 13.09H11c-.33 0-.55.11-.77.328l-.66.655c-1.21 1.2-1.87 2.727-1.87 4.472 0 .655.44 1.091 1.1 1.091H11v.873c0 2.51 1.1 4.91 3.19 6.546 1.54 1.2 2.31 2.945 2.31 4.8v1.963c0 .655.44 1.091 1.1 1.091.66 0 1.1-.436 1.1-1.09v-1.964c0-2.51-1.1-4.91-3.19-6.546-1.54-1.2-2.31-2.945-2.31-4.8v-.873h2.2c.66 0 1.1-.436 1.1-1.09 0-1.419-.44-2.728-1.32-3.819 5.06-1.854 9.02-7.963 9.02-14.727zM10.12 30.547c.22-.655.55-1.31 1.1-1.855l.33-.327h1.21l.33.327c.55.545.88 1.2 1.1 1.855h-4.07z"/><path d="M12.1 4.364c-3.3 0-6.05 1.963-7.15 5.127-.22.545.11 1.2.66 1.418.11 0 .22.11.33.11.44 0 .88-.328.99-.764.88-2.291 2.86-3.71 5.17-3.71.66 0 1.1-.436 1.1-1.09 0-.655-.44-1.091-1.1-1.091z"/></g></svg>